<?xml version="1.0" encoding="UTF-8" standalone="no"?>
<svg
   xmlns:dc="http://purl.org/dc/elements/1.1/"
   xmlns:cc="http://creativecommons.org/ns#"
   xmlns:rdf="http://www.w3.org/1999/02/22-rdf-syntax-ns#"
   xmlns:svg="http://www.w3.org/2000/svg"
   xmlns="http://www.w3.org/2000/svg"
   viewBox="0 0 509.46799 551.15198"
   height="551.15198"
   width="509.46799"
   xml:space="preserve"
   id="svg2"
   version="1.1"><metadata
     id="metadata8"><rdf:RDF><cc:Work
         rdf:about=""><dc:format>image/svg+xml</dc:format><dc:type
           rdf:resource="http://purl.org/dc/dcmitype/StillImage" /></cc:Work></rdf:RDF></metadata><defs
     id="defs6"><clipPath
       id="clipPath18"
       clipPathUnits="userSpaceOnUse"><path
         id="path16"
         d="M 0,413.364 H 382.101 V 0 H 0 Z" /></clipPath><clipPath
       id="clipPath196"
       clipPathUnits="userSpaceOnUse"><path
         id="path194"
         d="m 116.857,155.477 h 148.387 v -25.62 H 116.857 Z" /></clipPath></defs><g
     transform="matrix(1.3333333,0,0,-1.3333333,0,551.152)"
     id="g10"><g
       id="g12"><g
         clip-path="url(#clipPath18)"
         id="g14"><g
           transform="translate(191.0512,380.7689)"
           id="g20"><path
             id="path22"
             style="fill:#fffaee;fill-opacity:1;fill-rule:nonzero;stroke:none"
             d="m 0,0 c -16.082,0 -31.415,-3.109 -45.367,-8.727 -41.86,-16.853 -71.297,-56.291 -71.297,-102.141 v -77.397 -84.031 h 1.275 230.776 1.278 v 84.031 77.397 C 116.665,-49.735 64.329,0 0,0" /></g><g
           transform="translate(138.1688,286.9813)"
           id="g24"><path
             id="path26"
             style="fill:#2e55a2;fill-opacity:1;fill-rule:nonzero;stroke:none"
             d="m 0,0 c -0.494,1.421 -1.206,2.657 -2.133,3.705 -0.928,1.048 -2.066,1.874 -3.416,2.476 -1.349,0.602 -2.868,0.903 -4.554,0.903 -1.35,0 -2.651,-0.24 -3.904,-0.722 0,-3.591 -0.012,-7.175 -0.036,-10.754 -0.024,-3.578 -0.036,-7.163 -0.036,-10.754 0,-0.337 0.168,-0.584 0.506,-0.74 0.337,-0.157 0.735,-0.271 1.193,-0.343 0.457,-0.073 0.903,-0.109 1.337,-0.109 h 1.012 c 1.759,0 3.308,0.301 4.645,0.903 1.338,0.602 2.458,1.434 3.362,2.495 0.903,1.06 1.584,2.307 2.042,3.741 0.458,1.433 0.687,2.982 0.687,4.645 H 0.741 C 0.741,-2.94 0.494,-1.422 0,0 m 4.012,-10.211 c -0.783,-1.699 -1.862,-3.103 -3.235,-4.211 -1.374,-1.109 -3,-1.929 -4.88,-2.458 -1.879,-0.531 -3.903,-0.796 -6.072,-0.796 h -7.736 V 4.952 c 0,0.674 -0.078,1.205 -0.235,1.59 -0.157,0.386 -0.385,0.669 -0.687,0.85 -0.301,0.181 -0.674,0.295 -1.12,0.343 -0.446,0.048 -0.946,0.073 -1.5,0.073 V 8.35 h 11.856 c 1.975,0 3.855,-0.247 5.639,-0.741 1.783,-0.494 3.355,-1.254 4.717,-2.277 1.361,-1.025 2.44,-2.32 3.235,-3.886 0.795,-1.567 1.193,-3.434 1.193,-5.603 0,-2.338 -0.392,-4.355 -1.175,-6.054" /></g><g
           transform="translate(153.5131,289.1864)"
           id="g28"><path
             id="path30"
             style="fill:#2e55a2;fill-opacity:1;fill-rule:nonzero;stroke:none"
             d="m 0,0 -4.302,-9.977 h 8.459 z m 8.133,-19.881 c -0.555,1.446 -1.121,2.874 -1.699,4.284 -0.579,1.409 -1.169,2.837 -1.771,4.283 H -4.88 c -0.024,-0.049 -0.108,-0.229 -0.253,-0.542 -0.144,-0.313 -0.313,-0.687 -0.506,-1.121 -0.193,-0.434 -0.398,-0.91 -0.614,-1.427 -0.217,-0.519 -0.422,-1.019 -0.615,-1.501 -0.193,-0.482 -0.35,-0.916 -0.47,-1.301 -0.12,-0.385 -0.181,-0.663 -0.181,-0.831 0,-0.338 0.102,-0.603 0.308,-0.796 0.204,-0.192 0.452,-0.331 0.741,-0.415 0.289,-0.085 0.59,-0.127 0.904,-0.127 h 0.831 v -0.506 h -7.193 v 0.543 c 0.457,0 0.843,0.078 1.156,0.234 0.313,0.157 0.579,0.368 0.795,0.633 0.217,0.265 0.41,0.572 0.579,0.922 0.168,0.349 0.337,0.705 0.506,1.066 L 1.121,6.47 1.374,6.506 12.434,-19.881 Z" /></g><g
           transform="translate(178.5077,273.788)"
           id="g32"><path
             id="path34"
             style="fill:#2e55a2;fill-opacity:1;fill-rule:nonzero;stroke:none"
             d="m 0,0 c -0.277,-0.94 -0.687,-1.771 -1.229,-2.494 -0.542,-0.723 -1.217,-1.308 -2.024,-1.754 -0.808,-0.445 -1.753,-0.668 -2.838,-0.668 -0.386,0 -0.813,0.054 -1.283,0.163 -0.47,0.108 -0.916,0.271 -1.337,0.488 -0.422,0.217 -0.777,0.499 -1.066,0.849 -0.29,0.349 -0.434,0.765 -0.434,1.247 0,0.554 0.192,0.982 0.578,1.283 0.385,0.302 0.831,0.452 1.338,0.452 0.578,0 1.024,-0.163 1.337,-0.488 0.312,-0.325 0.572,-0.675 0.777,-1.048 0.204,-0.374 0.403,-0.723 0.597,-1.049 0.192,-0.325 0.457,-0.487 0.794,-0.487 0.338,0 0.597,0.12 0.778,0.361 0.18,0.241 0.307,0.524 0.379,0.85 0.072,0.325 0.114,0.662 0.127,1.012 0.012,0.349 0.018,0.644 0.018,0.886 v 21.94 H 0.416 V 2.892 C 0.416,1.903 0.277,0.94 0,0" /></g><g
           transform="translate(203.8822,271.4564)"
           id="g36"><path
             id="path38"
             style="fill:#2e55a2;fill-opacity:1;fill-rule:nonzero;stroke:none"
             d="m 0,0 c -1.675,-1.675 -4.126,-2.512 -7.355,-2.512 -1.446,0 -2.802,0.175 -4.067,0.524 -1.265,0.349 -2.362,0.891 -3.289,1.627 -0.928,0.735 -1.663,1.668 -2.206,2.801 -0.541,1.132 -0.812,2.482 -0.812,4.048 v 13.989 c 0,0.627 -0.079,1.126 -0.235,1.5 -0.158,0.374 -0.38,0.663 -0.669,0.868 -0.289,0.204 -0.645,0.337 -1.067,0.397 -0.422,0.06 -0.909,0.091 -1.464,0.091 v 0.542 h 10.627 v -0.542 c -0.602,0 -1.096,-0.031 -1.482,-0.091 -0.385,-0.06 -0.699,-0.187 -0.939,-0.379 -0.241,-0.194 -0.428,-0.476 -0.561,-0.85 -0.132,-0.374 -0.247,-0.873 -0.343,-1.5 V 20.477 6.524 c 0,-2.337 0.566,-4.151 1.699,-5.44 1.132,-1.289 2.904,-1.934 5.313,-1.934 1.446,0 2.663,0.223 3.651,0.669 0.988,0.446 1.777,1.067 2.368,1.862 0.59,0.795 1.012,1.74 1.265,2.838 0.253,1.096 0.379,2.294 0.379,3.596 v 15.76 H 2.512 V 7.356 C 2.512,4.126 1.675,1.675 0,0" /></g><g
           transform="translate(236.5404,294.7709)"
           id="g40"><path
             id="path42"
             style="fill:#2e55a2;fill-opacity:1;fill-rule:nonzero;stroke:none"
             d="m 0,0 c -0.458,-0.061 -0.862,-0.199 -1.211,-0.416 -0.35,-0.216 -0.621,-0.518 -0.813,-0.903 -0.193,-0.386 -0.289,-0.892 -0.289,-1.518 v -23.17 h -0.326 l -17.965,21.868 v -21.326 h -1.445 v 22.881 c -0.555,0.795 -1.218,1.457 -1.989,1.988 -0.771,0.53 -1.662,0.77 -2.674,0.722 v 0.435 h 7.157 L -3.795,-18.525 -3.832,0.597 1.518,0.561 V 0.054 C 0.963,0.078 0.458,0.06 0,0" /></g><g
           transform="translate(263.1078,282.0292)"
           id="g44"><path
             id="path46"
             style="fill:#2e55a2;fill-opacity:1;fill-rule:nonzero;stroke:none"
             d="m 0,0 c -0.53,-0.482 -0.795,-1.229 -0.795,-2.241 v -8.169 c -1.518,-0.892 -3.133,-1.554 -4.844,-1.988 -1.711,-0.434 -3.446,-0.651 -5.205,-0.651 -1.856,0 -3.627,0.289 -5.313,0.868 -1.687,0.578 -3.181,1.41 -4.483,2.494 -1.301,1.084 -2.337,2.404 -3.108,3.958 -0.772,1.554 -1.157,3.319 -1.157,5.295 0,1.976 0.362,3.826 1.085,5.549 0.722,1.722 1.711,3.222 2.964,4.5 1.252,1.277 2.734,2.277 4.446,3 1.71,0.723 3.566,1.085 5.566,1.085 0.844,0 1.675,-0.079 2.494,-0.235 0.819,-0.157 1.627,-0.368 2.422,-0.633 0.409,-0.144 0.849,-0.338 1.32,-0.578 0.469,-0.241 0.909,-0.362 1.319,-0.362 0.385,0 0.71,0.163 0.976,0.488 0.265,0.326 0.421,0.669 0.47,1.03 h 0.361 L -0.903,5.458 -1.229,5.422 c -0.723,2.048 -1.874,3.711 -3.452,4.988 -1.578,1.278 -3.488,1.916 -5.729,1.916 -1.639,0 -3.085,-0.331 -4.338,-0.994 -1.253,-0.663 -2.307,-1.542 -3.163,-2.639 -0.855,-1.096 -1.505,-2.349 -1.951,-3.759 -0.447,-1.41 -0.669,-2.862 -0.669,-4.355 0,-1.567 0.217,-3.085 0.651,-4.555 0.433,-1.47 1.084,-2.777 1.951,-3.922 0.868,-1.145 1.952,-2.06 3.254,-2.747 1.301,-0.687 2.819,-1.03 4.554,-1.03 0.988,0 1.946,0.162 2.874,0.488 0.927,0.325 1.777,0.801 2.548,1.428 V 1.157 H 2.277 V 0.651 C 1.289,0.699 0.53,0.482 0,0" /></g><g
           transform="translate(127.5678,133.1835)"
           id="g48"><path
             id="path50"
             style="fill:#2e55a2;fill-opacity:1;fill-rule:nonzero;stroke:none"
             d="m 0,0 c -1.937,0 -3.87,0.454 -5.617,1.359 -1.681,0.87 -3.085,2.123 -4.059,3.625 -0.986,1.519 -1.507,3.249 -1.507,5.005 0,5.508 1.231,10.869 3.659,15.934 2.42,5.055 5.909,9.559 10.369,13.387 2.643,2.265 5.419,4.407 8.25,6.365 0.34,0.235 0.785,0.249 1.14,0.037 0.355,-0.212 0.553,-0.612 0.507,-1.023 -0.272,-2.4 -0.07,-4.816 0.599,-7.18 1.711,-6.05 3.609,-12.769 5.224,-18.508 0.158,-0.561 -0.169,-1.143 -0.729,-1.3 -0.561,-0.158 -1.143,0.169 -1.3,0.729 -1.615,5.738 -3.513,12.456 -5.223,18.505 -0.537,1.893 -0.803,3.818 -0.796,5.747 C 8.361,41.118 6.25,39.452 4.218,37.709 -0.018,34.074 -3.33,29.802 -5.623,25.012 -7.914,20.233 -9.075,15.179 -9.075,9.989 c 0,-1.347 0.404,-2.681 1.167,-3.858 0.776,-1.194 1.904,-2.198 3.261,-2.901 2.755,-1.427 6.216,-1.479 9.03,-0.135 2.911,1.388 7.486,3.54 12.747,5.911 0.531,0.24 1.155,0.003 1.394,-0.527 C 18.764,7.948 18.527,7.324 17.997,7.084 12.752,4.721 8.192,2.576 5.291,1.193 3.625,0.397 1.811,0 0,0" /></g><g
           transform="translate(254.5297,133.1923)"
           id="g52"><path
             id="path54"
             style="fill:#2e55a2;fill-opacity:1;fill-rule:nonzero;stroke:none"
             d="m 0,0 c -1.839,0 -3.669,0.41 -5.291,1.184 -4.305,2.053 -8.832,4.151 -13.091,6.066 -0.531,0.239 -0.767,0.863 -0.529,1.394 0.239,0.531 0.863,0.768 1.394,0.529 C -13.183,7.224 -8.764,5.176 -4.383,3.087 -3.042,2.446 -1.527,2.108 0,2.108 c 1.637,0 3.245,0.385 4.651,1.114 1.354,0.702 2.482,1.706 3.261,2.902 0.763,1.175 1.167,2.509 1.167,3.856 0,5.188 -1.162,10.242 -3.452,15.022 -2.295,4.791 -5.607,9.064 -9.844,12.699 -2.035,1.747 -4.15,3.416 -6.308,4.98 0.007,-1.94 -0.26,-3.875 -0.801,-5.778 l -5.508,-19.406 c -0.16,-0.56 -0.743,-0.885 -1.302,-0.726 -0.56,0.159 -0.885,0.742 -0.726,1.302 l 5.508,19.406 c 0.674,2.371 0.877,4.796 0.603,7.208 -0.047,0.411 0.151,0.811 0.505,1.023 0.355,0.212 0.801,0.198 1.141,-0.037 2.835,-1.957 5.614,-4.101 8.26,-6.372 C 1.616,35.474 5.106,30.97 7.528,25.914 9.956,20.847 11.187,15.486 11.187,9.98 11.187,8.225 10.665,6.494 9.679,4.975 8.701,3.473 7.298,2.22 5.621,1.35 3.917,0.467 1.973,0 0,0" /></g><g
           transform="translate(165.0058,190.1806)"
           id="g56"><path
             id="path58"
             style="fill:#2e55a2;fill-opacity:1;fill-rule:nonzero;stroke:none"
             d="m 0,0 v -0.001 z m 0,-0.002 v -0.002 z m -3.144,-50.873 c -4.179,0 -8.259,1.267 -11.552,3.642 -3.092,2.23 -5.238,5.227 -6.206,8.666 -1.615,5.738 -3.513,12.456 -5.223,18.505 -0.745,2.628 -0.968,5.317 -0.666,7.991 0.065,0.579 0.587,0.994 1.166,0.929 0.578,-0.066 0.994,-0.587 0.929,-1.166 -0.272,-2.4 -0.07,-4.817 0.599,-7.18 1.711,-6.05 3.609,-12.769 5.224,-18.508 0.838,-2.976 2.709,-5.579 5.41,-7.527 3.699,-2.668 8.525,-3.767 13.238,-3.014 0.198,0.034 0.41,0.068 0.621,0.101 0.958,0.153 1.871,0.291 2.761,0.417 -0.615,1.582 -1.008,3.23 -1.168,4.917 l -4.084,42.892 1.046,0.135 -1.049,-0.106 c -0.004,0.037 -0.006,0.075 -0.008,0.112 -0.232,2.627 0.117,5.274 1.015,7.761 -2.518,-0.594 -5.022,-1.274 -7.468,-2.027 -6.407,-1.976 -11.617,-6.242 -14.292,-11.703 -0.256,-0.522 -0.888,-0.738 -1.41,-0.483 -0.523,0.257 -0.739,0.888 -0.483,1.411 2.931,5.981 8.603,10.643 15.564,12.789 C -6.03,8.65 -2.786,9.5 0.462,10.206 0.858,10.291 1.269,10.143 1.518,9.823 1.767,9.503 1.811,9.07 1.63,8.707 0.276,5.98 -0.273,3.081 -0.004,0.09 -0.002,0.07 -0.001,0.05 0,0.03 l 0.005,-0.061 4.082,-42.871 c 0.182,-1.911 0.7,-3.766 1.54,-5.516 0.146,-0.305 0.137,-0.662 -0.023,-0.958 -0.162,-0.297 -0.455,-0.499 -0.79,-0.543 -1.31,-0.173 -2.646,-0.369 -4.085,-0.598 -0.206,-0.033 -0.409,-0.065 -0.609,-0.099 -1.087,-0.174 -2.179,-0.259 -3.264,-0.259" /></g><g
           transform="translate(221.0814,139.1776)"
           id="g60"><path
             id="path62"
             style="fill:#2e55a2;fill-opacity:1;fill-rule:nonzero;stroke:none"
             d="M 0,0 C -1.027,0 -2.062,0.082 -3.092,0.249 L -4.159,0.42 c -2.341,0.377 -4.686,0.704 -6.969,0.969 -0.335,0.039 -0.631,0.236 -0.797,0.529 -0.165,0.294 -0.18,0.649 -0.04,0.956 0.759,1.665 1.232,3.423 1.404,5.227 l 4.086,42.891 c 0.029,0.299 0.046,0.546 0.055,0.778 0.136,2.927 -0.542,5.855 -1.96,8.473 -0.195,0.358 -0.165,0.796 0.076,1.125 0.24,0.328 0.648,0.488 1.049,0.412 4.182,-0.801 8.366,-1.843 12.435,-3.095 6.748,-2.081 12.147,-6.371 15.202,-12.08 0.275,-0.513 0.081,-1.151 -0.432,-1.426 -0.513,-0.275 -1.152,-0.081 -1.427,0.431 -2.791,5.216 -7.751,9.144 -13.964,11.06 -3.334,1.026 -6.747,1.908 -10.172,2.63 0.973,-2.428 1.42,-5.026 1.299,-7.619 -0.01,-0.264 -0.03,-0.55 -0.062,-0.889 L -8.462,7.901 C -8.612,6.333 -8.962,4.797 -9.506,3.316 -7.632,3.081 -5.727,2.808 -3.824,2.501 L -2.757,2.33 c 4.513,-0.729 9.096,0.357 12.576,2.979 2.365,1.782 4.014,4.126 4.767,6.779 l 5.509,19.406 c 0.674,2.371 0.876,4.796 0.602,7.208 -0.066,0.578 0.35,1.1 0.928,1.166 0.578,0.065 1.101,-0.35 1.167,-0.929 0.305,-2.686 0.08,-5.385 -0.669,-8.021 L 16.614,11.512 C 15.733,8.414 13.823,5.687 11.088,3.625 7.951,1.262 4.032,0 0,0" /></g><g
           transform="translate(165.0058,190.1806)"
           id="g64"><path
             id="path66"
             style="fill:#2e55a2;fill-opacity:1;fill-rule:nonzero;stroke:none"
             d="m 0,0 v -0.001 z m 0,-0.002 v -0.002 z m 0,0.031 0.005,-0.06 4.082,-42.871 c 0.182,-1.911 0.7,-3.766 1.54,-5.516 3.246,-6.778 10.773,-11.157 19.175,-11.157 8.558,0 16.137,4.492 19.308,11.446 0.76,1.665 1.233,3.423 1.405,5.227 l 4.086,42.891 c 0.028,0.299 0.046,0.546 0.055,0.778 0,0.003 0,0.005 0,0.008 0.136,2.919 -0.542,5.847 -1.961,8.465 -3.422,6.342 -10.804,10.438 -18.806,10.438 H 20.716 C 12.423,19.678 4.932,15.372 1.631,8.708 0.276,5.98 -0.273,3.081 -0.004,0.09 -0.002,0.07 -0.001,0.05 0,0.029 m 24.802,-61.712 c -9.209,0 -17.482,4.849 -21.076,12.353 -0.947,1.974 -1.532,4.07 -1.737,6.228 l -4.084,42.892 1.046,0.135 -1.049,-0.106 c -0.004,0.037 -0.006,0.075 -0.008,0.112 -0.294,3.327 0.345,6.685 1.848,9.713 3.653,7.376 11.886,12.142 20.974,12.142 h 8.173 c 4.408,0 8.685,-1.109 12.367,-3.209 3.587,-2.045 6.454,-4.927 8.293,-8.334 1.6,-2.953 2.366,-6.259 2.213,-9.56 C 51.752,0.412 51.732,0.127 51.7,-0.21 l -4.087,-42.892 c -0.195,-2.038 -0.728,-4.023 -1.585,-5.902 -3.513,-7.702 -11.845,-12.679 -21.226,-12.679" /></g><path
           id="path68"
           style="fill:#ca2b30;fill-opacity:1;fill-rule:nonzero;stroke:none"
           d="m 269.052,248.642 h -52.003 v -3.45 h 52.003 z" /><path
           id="path70"
           style="fill:#008171;fill-opacity:1;fill-rule:nonzero;stroke:none"
           d="m 113.048,245.192 h 51.997 v 3.45 h -51.997 z" /><path
           id="path72"
           style="fill:#c2c3c1;fill-opacity:1;fill-rule:nonzero;stroke:none"
           d="m 165.045,245.192 h 52.003 v 3.45 h -52.003 z" /><g
           transform="translate(159.2025,330.0419)"
           id="g74"><path
             id="path76"
             style="fill:#2e55a2;fill-opacity:1;fill-rule:nonzero;stroke:none"
             d="M 0,0 C -0.313,0.354 -0.678,0.614 -1.092,0.782 -1.505,0.949 -1.958,1.034 -2.449,1.036 -2.94,1.038 -3.441,0.969 -3.951,0.829 -4.139,0.777 -4.323,0.712 -4.503,0.634 -4.684,0.555 -4.862,0.47 -5.039,0.378 l 1.5,-5.453 c 0.108,-0.13 0.242,-0.225 0.404,-0.289 0.162,-0.064 0.332,-0.104 0.51,-0.12 0.177,-0.016 0.356,-0.014 0.538,0.007 0.182,0.021 0.34,0.051 0.474,0.088 0.952,0.262 1.641,0.761 2.066,1.498 0.425,0.738 0.506,1.582 0.245,2.535 C 0.546,-0.806 0.314,-0.354 0,0 M -2.164,6.687 C -2.455,7.011 -2.796,7.253 -3.186,7.413 -3.576,7.573 -3.998,7.662 -4.45,7.682 -4.903,7.702 -5.351,7.651 -5.793,7.529 -5.981,7.478 -6.159,7.414 -6.326,7.339 -6.493,7.265 -6.667,7.188 -6.847,7.11 l 1.55,-5.634 c 0.269,0.016 0.526,0.04 0.77,0.071 0.244,0.031 0.493,0.081 0.748,0.151 0.926,0.255 1.597,0.714 2.013,1.377 0.417,0.662 0.496,1.463 0.238,2.403 -0.133,0.482 -0.345,0.886 -0.636,1.209 M 3.353,-2.628 C 3.175,-3.217 2.878,-3.736 2.46,-4.183 2.042,-4.63 1.528,-5.005 0.919,-5.31 0.311,-5.615 -0.316,-5.855 -0.96,-6.032 l -4.326,-1.19 -3.647,13.26 c -0.063,0.228 -0.181,0.383 -0.355,0.465 -0.174,0.082 -0.37,0.125 -0.588,0.131 -0.218,0.005 -0.437,-0.012 -0.657,-0.051 -0.22,-0.039 -0.404,-0.079 -0.551,-0.12 l -0.078,0.282 5.614,1.544 c 0.389,0.107 0.777,0.207 1.163,0.298 0.385,0.092 0.774,0.134 1.166,0.126 0.436,-0.01 0.869,-0.064 1.3,-0.162 0.431,-0.097 0.828,-0.244 1.192,-0.44 C -0.363,7.916 -0.042,7.657 0.233,7.336 0.509,7.015 0.711,6.62 0.841,6.15 1.066,5.332 1.036,4.562 0.75,3.842 0.465,3.122 -0.048,2.537 -0.791,2.087 -0.332,2.098 0.114,2.051 0.547,1.947 0.979,1.842 1.378,1.678 1.743,1.453 2.108,1.229 2.427,0.945 2.702,0.602 2.977,0.259 3.177,-0.14 3.302,-0.596 3.513,-1.361 3.529,-2.038 3.353,-2.628" /></g><g
           transform="translate(168.3407,337.9008)"
           id="g78"><path
             id="path80"
             style="fill:#2e55a2;fill-opacity:1;fill-rule:nonzero;stroke:none"
             d="m 0,0 -1.538,-6.081 4.821,0.775 z m 6.457,-10.587 c -0.448,0.773 -0.902,1.535 -1.361,2.286 -0.458,0.75 -0.926,1.51 -1.402,2.279 l -5.439,-0.874 c -0.009,-0.03 -0.041,-0.141 -0.095,-0.333 -0.054,-0.191 -0.116,-0.419 -0.185,-0.685 -0.071,-0.265 -0.144,-0.555 -0.22,-0.87 -0.076,-0.315 -0.147,-0.619 -0.213,-0.911 -0.066,-0.293 -0.115,-0.555 -0.148,-0.785 -0.034,-0.231 -0.043,-0.395 -0.027,-0.49 0.03,-0.193 0.113,-0.335 0.248,-0.426 0.134,-0.091 0.287,-0.147 0.46,-0.168 0.173,-0.022 0.348,-0.019 0.527,0.01 0.178,0.029 0.336,0.054 0.474,0.076 l 0.046,-0.288 -4.1,-0.659 -0.05,0.309 c 0.261,0.042 0.474,0.121 0.638,0.24 0.164,0.118 0.296,0.262 0.395,0.433 0.1,0.171 0.182,0.364 0.245,0.579 0.064,0.214 0.128,0.432 0.191,0.654 L 0.046,3.791 0.187,3.834 8.909,-10.193 Z" /></g><g
           transform="translate(190.121,328.2719)"
           id="g82"><path
             id="path84"
             style="fill:#2e55a2;fill-opacity:1;fill-rule:nonzero;stroke:none"
             d="m 0,0 -6.733,6.822 -0.448,-0.35 0.236,-6.716 -4.275,-0.15 -0.011,0.313 c 0.278,0.01 0.538,0.033 0.78,0.069 0.243,0.036 0.456,0.107 0.64,0.211 0.185,0.103 0.325,0.258 0.422,0.464 0.097,0.205 0.14,0.481 0.128,0.829 l -0.465,13.243 2.255,0.017 0.254,-7.237 c 0.148,0.144 0.39,0.379 0.727,0.704 0.336,0.325 0.709,0.7 1.119,1.125 0.41,0.425 0.833,0.871 1.269,1.339 0.435,0.468 0.831,0.924 1.184,1.368 0.353,0.444 0.642,0.85 0.865,1.22 0.224,0.37 0.332,0.659 0.325,0.868 -0.005,0.153 -0.055,0.266 -0.147,0.339 -0.094,0.073 -0.21,0.122 -0.35,0.145 -0.14,0.023 -0.283,0.028 -0.429,0.016 -0.146,-0.013 -0.267,-0.02 -0.365,-0.023 l -0.01,0.312 5.13,0.18 0.011,-0.312 C 1.653,14.78 1.269,14.721 0.959,14.62 0.649,14.518 0.312,14.315 -0.053,14.01 -0.336,13.763 -0.613,13.492 -0.88,13.198 -1.149,12.903 -1.41,12.594 -1.663,12.272 -1.916,11.95 -2.162,11.628 -2.401,11.307 -2.641,10.985 -2.874,10.688 -3.101,10.416 -3.421,10.028 -3.752,9.641 -4.094,9.253 -4.435,8.865 -4.788,8.505 -5.152,8.172 L 1.141,2.003 C 1.357,1.788 1.584,1.58 1.821,1.379 2.057,1.179 2.307,1.007 2.57,0.863 2.832,0.719 3.107,0.606 3.396,0.526 3.684,0.446 3.988,0.418 4.307,0.444 l 0.01,-0.292 z" /></g><g
           transform="translate(206.1698,327.4686)"
           id="g86"><path
             id="path88"
             style="fill:#2e55a2;fill-opacity:1;fill-rule:nonzero;stroke:none"
             d="m 0,0 -9.511,0.708 0.97,13.027 c 0.028,0.375 0.008,0.673 -0.059,0.894 -0.067,0.222 -0.18,0.393 -0.338,0.517 -0.159,0.124 -0.361,0.212 -0.608,0.265 -0.247,0.053 -0.537,0.092 -0.871,0.117 l 0.023,0.312 11.322,-0.842 -0.242,-3.247 -0.208,0.016 c 0.034,0.458 -0.017,0.849 -0.153,1.173 -0.137,0.324 -0.333,0.59 -0.59,0.797 -0.256,0.207 -0.562,0.363 -0.917,0.466 -0.356,0.103 -0.734,0.17 -1.136,0.199 L -6.231,14.694 -6.664,8.867 -3.48,8.629 c 0.402,-0.029 0.758,-0.025 1.068,0.016 0.31,0.039 0.575,0.134 0.796,0.285 0.22,0.152 0.393,0.365 0.518,0.642 0.125,0.276 0.204,0.636 0.238,1.081 l 0.27,-0.02 -0.386,-5.182 -0.291,0.022 c 0.12,0.856 0.004,1.454 -0.348,1.794 -0.351,0.34 -0.929,0.54 -1.734,0.6 L -6.72,8.117 -7.175,1.999 c -0.012,-0.153 0.029,-0.302 0.123,-0.449 0.094,-0.146 0.224,-0.226 0.39,-0.238 0.583,-0.043 1.156,-0.083 1.718,-0.118 0.563,-0.034 1.135,-0.073 1.718,-0.117 0.638,-0.047 1.172,-0.045 1.601,0.006 0.43,0.052 0.809,0.174 1.137,0.366 0.328,0.192 0.62,0.463 0.876,0.814 0.257,0.35 0.524,0.801 0.802,1.353 L 1.434,3.514 Z" /></g><g
           transform="translate(219.0897,337.8553)"
           id="g90"><path
             id="path92"
             style="fill:#2e55a2;fill-opacity:1;fill-rule:nonzero;stroke:none"
             d="M 0,0 C -0.069,0.424 -0.217,0.806 -0.443,1.145 -0.669,1.485 -0.962,1.774 -1.32,2.011 -1.679,2.249 -2.105,2.413 -2.597,2.506 -2.857,2.555 -3.123,2.573 -3.394,2.56 -3.666,2.547 -3.927,2.508 -4.18,2.443 l -1.142,-6.071 c 0.066,-0.027 0.133,-0.046 0.201,-0.059 0.082,-0.016 0.157,-0.03 0.226,-0.042 0.52,-0.098 1.041,-0.144 1.567,-0.136 0.525,0.008 1.013,0.096 1.462,0.266 0.449,0.171 0.84,0.437 1.17,0.8 0.33,0.362 0.551,0.844 0.665,1.446 0.09,0.478 0.1,0.93 0.031,1.353 m 1.402,-13.153 c -0.328,0.062 -0.601,0.138 -0.818,0.228 -0.216,0.091 -0.406,0.208 -0.57,0.352 -0.164,0.144 -0.309,0.316 -0.434,0.517 -0.125,0.2 -0.253,0.44 -0.385,0.72 l -3.34,6.743 -0.615,0.116 -0.697,0.131 -1.312,-6.973 -4.122,0.775 0.055,0.287 c 0.229,-0.057 0.46,-0.094 0.69,-0.108 0.231,-0.015 0.447,0.004 0.648,0.058 0.202,0.055 0.373,0.16 0.517,0.317 0.142,0.157 0.241,0.38 0.294,0.667 l 2.184,11.608 c 0.054,0.287 0.042,0.526 -0.035,0.718 -0.078,0.191 -0.199,0.352 -0.366,0.483 -0.166,0.13 -0.36,0.23 -0.58,0.3 -0.221,0.07 -0.442,0.118 -0.663,0.146 l 0.054,0.287 6.399,-1.203 C -1.065,2.897 -0.468,2.725 0.098,2.498 0.664,2.271 1.149,1.971 1.553,1.598 1.958,1.225 2.25,0.77 2.433,0.233 2.615,-0.304 2.638,-0.935 2.501,-1.659 2.396,-2.22 2.208,-2.694 1.937,-3.082 1.666,-3.47 1.337,-3.787 0.951,-4.033 0.565,-4.279 0.13,-4.462 -0.353,-4.584 -0.835,-4.706 -1.334,-4.781 -1.85,-4.812 l 2.988,-6.019 c 0.268,-0.532 0.568,-0.988 0.9,-1.369 0.332,-0.381 0.805,-0.629 1.42,-0.745 l -0.054,-0.287 c -0.678,-0.07 -1.346,-0.044 -2.002,0.079" /></g><g
           transform="translate(237.3305,335.2733)"
           id="g94"><path
             id="path96"
             style="fill:#2e55a2;fill-opacity:1;fill-rule:nonzero;stroke:none"
             d="M 0,0 C -0.251,0.01 -0.49,-0.024 -0.716,-0.101 -0.943,-0.179 -1.165,-0.29 -1.383,-0.435 -1.601,-0.581 -1.832,-0.769 -2.076,-1.001 l -5.777,-5.175 -1.851,-6.177 -2.159,0.647 1.851,6.177 -1.959,7.493 c -0.084,0.302 -0.169,0.574 -0.256,0.818 -0.087,0.244 -0.2,0.459 -0.34,0.646 -0.14,0.188 -0.31,0.347 -0.51,0.48 -0.199,0.133 -0.46,0.247 -0.779,0.342 l 0.089,0.3 4.005,-1.177 c 0.182,-0.796 0.34,-1.494 0.473,-2.092 0.133,-0.599 0.275,-1.252 0.426,-1.958 0.152,-0.706 0.299,-1.368 0.441,-1.984 0.142,-0.616 0.26,-1.142 0.355,-1.577 0.094,-0.435 0.149,-0.676 0.164,-0.724 0.043,0.045 0.203,0.182 0.483,0.411 0.278,0.228 0.614,0.512 1.007,0.852 0.392,0.34 0.814,0.707 1.267,1.102 0.452,0.394 0.872,0.777 1.259,1.148 0.387,0.37 0.718,0.699 0.993,0.988 0.275,0.288 0.431,0.491 0.466,0.611 0.052,0.173 0.039,0.323 -0.04,0.448 -0.079,0.125 -0.194,0.225 -0.345,0.299 -0.153,0.075 -0.315,0.139 -0.488,0.19 -0.174,0.053 -0.32,0.096 -0.44,0.132 l 0.09,0.3 4.617,-1.384 -0.09,-0.3 C 0.543,-0.064 0.251,-0.01 0,0" /></g><g
           transform="translate(307.7147,269.9012)"
           id="g98"><path
             id="path100"
             style="fill:#2e55a2;fill-opacity:1;fill-rule:nonzero;stroke:none"
             d="M 0,0 V -161.429 H -1.277 V 0 c 0,60.462 -51.763,109.653 -115.387,109.653 -63.625,0 -115.389,-49.191 -115.389,-109.653 v -161.429 h -1.276 V 0 c 0,45.85 29.438,85.287 71.298,102.14 13.952,5.618 29.285,8.727 45.367,8.727 C -52.336,110.867 0,61.132 0,0" /></g><g
           transform="translate(302.2743,269.9012)"
           id="g102"><path
             id="path104"
             style="fill:#2e55a2;fill-opacity:1;fill-rule:nonzero;stroke:none"
             d="M 0,0 V -161.429 H -3.162 V 0 c 0,56.582 -48.477,102.612 -108.062,102.612 -59.585,0 -108.062,-46.03 -108.062,-102.612 v -161.429 h -3.162 V 0 c 0,58.325 49.896,105.774 111.224,105.774 C -49.895,105.774 0,58.325 0,0" /></g><path
           id="path106"
           style="fill:#2e55a2;fill-opacity:1;fill-rule:nonzero;stroke:none"
           d="M 368.024,108.05 H 14.076 v 0.843 h 353.948 z" /><path
           id="path108"
           style="fill:#2e55a2;fill-opacity:1;fill-rule:nonzero;stroke:none"
           d="M 368.024,32.595 H 14.076 v 0.843 h 353.948 z" /><g
           transform="translate(50.372,83.4486)"
           id="g110"><path
             id="path112"
             style="fill:#2e55a2;fill-opacity:1;fill-rule:nonzero;stroke:none"
             d="m 0,0 c -0.513,1.475 -1.25,2.756 -2.212,3.844 -0.963,1.087 -2.144,1.943 -3.544,2.569 -1.401,0.624 -2.975,0.937 -4.725,0.937 -1.4,0 -2.75,-0.25 -4.05,-0.75 0,-3.725 -0.013,-7.444 -0.038,-11.156 -0.025,-3.713 -0.037,-7.431 -0.037,-11.156 0,-0.35 0.174,-0.606 0.525,-0.769 0.35,-0.163 0.762,-0.281 1.237,-0.356 0.475,-0.075 0.938,-0.113 1.388,-0.113 h 1.05 c 1.824,0 3.431,0.313 4.819,0.938 1.387,0.624 2.549,1.487 3.487,2.587 0.937,1.1 1.643,2.394 2.119,3.882 0.474,1.487 0.712,3.093 0.712,4.818 H 0.769 C 0.769,-3.05 0.512,-1.475 0,0 m 4.163,-10.594 c -0.813,-1.762 -1.932,-3.219 -3.357,-4.368 -1.425,-1.15 -3.112,-2 -5.062,-2.55 -1.95,-0.55 -4.05,-0.825 -6.3,-0.825 h -8.025 V 5.138 c 0,0.699 -0.082,1.249 -0.244,1.65 -0.163,0.399 -0.4,0.693 -0.712,0.881 -0.313,0.187 -0.7,0.306 -1.163,0.356 -0.463,0.05 -0.981,0.075 -1.556,0.075 v 0.563 h 12.3 c 2.049,0 3.999,-0.257 5.85,-0.769 1.85,-0.513 3.481,-1.3 4.894,-2.363 C 2.2,4.468 3.318,3.125 4.144,1.5 c 0.825,-1.625 1.237,-3.563 1.237,-5.812 0,-2.425 -0.406,-4.519 -1.218,-6.282" /></g><g
           transform="translate(66.6654,85.7362)"
           id="g114"><path
             id="path116"
             style="fill:#2e55a2;fill-opacity:1;fill-rule:nonzero;stroke:none"
             d="m 0,0 -4.462,-10.35 h 8.774 z m 8.438,-20.625 c -0.576,1.5 -1.163,2.981 -1.763,4.444 -0.6,1.462 -1.213,2.944 -1.838,4.444 h -9.899 c -0.025,-0.051 -0.113,-0.238 -0.263,-0.563 -0.15,-0.325 -0.325,-0.712 -0.525,-1.162 -0.2,-0.45 -0.412,-0.944 -0.637,-1.481 -0.225,-0.538 -0.438,-1.057 -0.638,-1.557 -0.2,-0.5 -0.362,-0.95 -0.487,-1.35 -0.126,-0.4 -0.188,-0.688 -0.188,-0.862 0,-0.35 0.106,-0.625 0.319,-0.825 0.212,-0.201 0.469,-0.344 0.769,-0.431 0.3,-0.088 0.612,-0.132 0.937,-0.132 h 0.862 v -0.525 h -7.462 v 0.563 c 0.475,0 0.875,0.081 1.2,0.244 0.325,0.162 0.6,0.381 0.825,0.655 0.225,0.275 0.425,0.594 0.6,0.957 0.175,0.362 0.35,0.731 0.525,1.106 L 1.163,6.712 1.425,6.75 12.9,-20.625 Z" /></g><g
           transform="translate(92.9711,69.7616)"
           id="g118"><path
             id="path120"
             style="fill:#2e55a2;fill-opacity:1;fill-rule:nonzero;stroke:none"
             d="m 0,0 c -0.288,-0.975 -0.712,-1.838 -1.275,-2.588 -0.562,-0.749 -1.263,-1.356 -2.1,-1.818 -0.838,-0.463 -1.819,-0.694 -2.944,-0.694 -0.4,0 -0.844,0.056 -1.331,0.169 -0.488,0.112 -0.951,0.281 -1.388,0.506 -0.437,0.225 -0.806,0.518 -1.106,0.881 -0.3,0.362 -0.45,0.794 -0.45,1.294 0,0.575 0.2,1.018 0.6,1.331 0.4,0.313 0.863,0.469 1.388,0.469 0.6,0 1.062,-0.169 1.387,-0.507 0.325,-0.337 0.594,-0.7 0.806,-1.087 0.213,-0.388 0.419,-0.75 0.619,-1.087 0.2,-0.338 0.475,-0.507 0.825,-0.507 0.35,0 0.619,0.125 0.806,0.375 0.188,0.25 0.319,0.544 0.394,0.882 0.075,0.337 0.119,0.687 0.131,1.049 0.013,0.363 0.019,0.669 0.019,0.919 V 22.35 h 4.05 V 3 C 0.431,1.975 0.287,0.975 0,0" /></g><g
           transform="translate(119.6703,67.3427)"
           id="g122"><path
             id="path124"
             style="fill:#2e55a2;fill-opacity:1;fill-rule:nonzero;stroke:none"
             d="m 0,0 c -1.738,-1.738 -4.281,-2.606 -7.631,-2.606 -1.5,0 -2.906,0.182 -4.219,0.543 -1.312,0.363 -2.45,0.925 -3.412,1.688 -0.963,0.762 -1.725,1.731 -2.288,2.906 -0.562,1.175 -0.844,2.575 -0.844,4.2 v 14.513 c 0,0.649 -0.081,1.168 -0.243,1.556 -0.163,0.387 -0.394,0.687 -0.694,0.9 -0.3,0.212 -0.669,0.35 -1.106,0.412 -0.438,0.062 -0.944,0.094 -1.519,0.094 v 0.563 h 11.025 v -0.563 c -0.625,0 -1.138,-0.032 -1.537,-0.094 -0.401,-0.062 -0.726,-0.194 -0.975,-0.394 -0.25,-0.2 -0.445,-0.493 -0.581,-0.881 -0.138,-0.388 -0.257,-0.906 -0.357,-1.556 V 21.244 6.769 c 0,-2.425 0.587,-4.307 1.762,-5.644 1.175,-1.337 3.013,-2.006 5.513,-2.006 1.5,0 2.762,0.231 3.788,0.694 1.024,0.462 1.843,1.106 2.456,1.931 C -0.25,2.569 0.187,3.55 0.45,4.687 0.713,5.825 0.844,7.069 0.844,8.418 V 24.769 H 2.606 V 7.631 C 2.606,4.281 1.737,1.737 0,0" /></g><g
           transform="translate(153.9257,91.5302)"
           id="g126"><path
             id="path128"
             style="fill:#2e55a2;fill-opacity:1;fill-rule:nonzero;stroke:none"
             d="M 0,0 C -0.475,-0.063 -0.894,-0.207 -1.256,-0.432 -1.619,-0.656 -1.9,-0.969 -2.1,-1.369 -2.3,-1.77 -2.4,-2.294 -2.4,-2.944 v -24.037 h -0.337 l -18.638,22.687 v -22.124 h -1.5 v 23.736 c -0.575,0.826 -1.262,1.513 -2.062,2.063 -0.8,0.55 -1.725,0.8 -2.775,0.75 v 0.45 h 7.425 l 16.35,-19.8 -0.038,19.837 5.55,-0.037 V 0.056 C 1,0.081 0.475,0.062 0,0" /></g><g
           transform="translate(181.8632,78.3114)"
           id="g130"><path
             id="path132"
             style="fill:#2e55a2;fill-opacity:1;fill-rule:nonzero;stroke:none"
             d="M 0,0 C -0.55,-0.5 -0.825,-1.275 -0.825,-2.325 V -10.8 c -1.575,-0.925 -3.25,-1.613 -5.025,-2.063 -1.775,-0.45 -3.575,-0.674 -5.4,-0.674 -1.925,0 -3.763,0.3 -5.512,0.899 -1.751,0.6 -3.3,1.463 -4.65,2.588 -1.35,1.125 -2.425,2.494 -3.225,4.106 -0.8,1.612 -1.2,3.444 -1.2,5.494 0,2.05 0.375,3.968 1.125,5.756 0.75,1.787 1.775,3.343 3.075,4.669 1.299,1.325 2.837,2.362 4.612,3.112 1.775,0.75 3.7,1.125 5.775,1.125 0.875,0 1.737,-0.081 2.587,-0.244 0.85,-0.162 1.688,-0.381 2.513,-0.656 0.425,-0.15 0.881,-0.35 1.369,-0.6 0.487,-0.25 0.943,-0.375 1.368,-0.375 0.4,0 0.738,0.169 1.013,0.506 0.275,0.338 0.437,0.694 0.487,1.069 h 0.375 l 0.601,-8.25 -0.338,-0.037 c -0.75,2.125 -1.944,3.849 -3.581,5.175 -1.638,1.325 -3.619,1.987 -5.944,1.987 -1.7,0 -3.2,-0.344 -4.5,-1.031 -1.3,-0.688 -2.394,-1.6 -3.281,-2.737 -0.888,-1.139 -1.563,-2.438 -2.025,-3.9 C -21.069,3.656 -21.3,2.149 -21.3,0.6 c 0,-1.625 0.225,-3.201 0.675,-4.725 0.45,-1.525 1.125,-2.882 2.025,-4.069 0.9,-1.187 2.025,-2.137 3.375,-2.849 1.35,-0.713 2.925,-1.069 4.725,-1.069 1.025,0 2.019,0.168 2.981,0.506 0.962,0.337 1.844,0.831 2.644,1.481 V 1.2 H 2.362 V 0.675 C 1.337,0.725 0.549,0.5 0,0" /></g><g
           transform="translate(214.9369,87.7235)"
           id="g134"><path
             id="path136"
             style="fill:#2e55a2;fill-opacity:1;fill-rule:nonzero;stroke:none"
             d="m 0,0 c -0.351,0.7 -0.825,1.281 -1.425,1.744 -0.6,0.462 -1.288,0.819 -2.063,1.069 -0.775,0.25 -1.574,0.375 -2.4,0.375 -0.35,0 -0.687,-0.026 -1.012,-0.076 C -7.225,3.063 -7.562,3.013 -7.913,2.963 v -10.5 c 0.475,-0.1 0.932,-0.182 1.369,-0.244 0.437,-0.063 0.894,-0.094 1.369,-0.094 1.725,0 3.106,0.475 4.144,1.425 1.037,0.95 1.556,2.3 1.556,4.05 C 0.525,-1.5 0.35,-0.7 0,0 m 0.562,-12.619 c -0.375,0.763 -0.881,1.388 -1.519,1.875 -0.637,0.488 -1.381,0.85 -2.231,1.088 -0.85,0.238 -1.75,0.356 -2.7,0.356 -0.35,0 -0.7,-0.025 -1.049,-0.075 -0.351,-0.05 -0.701,-0.112 -1.051,-0.187 v -10.163 c 0.125,-0.275 0.313,-0.506 0.563,-0.693 0.25,-0.188 0.525,-0.338 0.825,-0.45 0.3,-0.113 0.612,-0.194 0.937,-0.244 0.325,-0.051 0.613,-0.075 0.863,-0.075 1.775,0 3.206,0.537 4.294,1.612 1.087,1.075 1.631,2.5 1.631,4.275 0,1.025 -0.188,1.919 -0.563,2.681 m 4.557,-6.15 c -0.588,-0.937 -1.35,-1.693 -2.288,-2.268 -0.937,-0.575 -2.006,-0.982 -3.206,-1.219 -1.2,-0.238 -2.4,-0.356 -3.6,-0.356 h -8.063 V 2.1 c 0,0.425 -0.131,0.75 -0.393,0.975 -0.263,0.225 -0.582,0.394 -0.956,0.507 -0.376,0.112 -0.763,0.187 -1.163,0.225 -0.4,0.037 -0.738,0.056 -1.013,0.056 V 4.388 H -5.1 c 0.725,0 1.444,-0.013 2.156,-0.038 C -2.231,4.325 -1.538,4.212 -0.863,4.013 -0.113,3.788 0.612,3.488 1.312,3.112 2.012,2.738 2.631,2.293 3.168,1.781 3.706,1.269 4.137,0.668 4.462,-0.019 4.787,-0.707 4.95,-1.487 4.95,-2.362 4.95,-3.888 4.531,-5.207 3.693,-6.318 2.855,-7.431 1.687,-8.2 0.187,-8.625 c 0.8,-0.2 1.55,-0.494 2.251,-0.881 0.699,-0.388 1.312,-0.863 1.837,-1.425 0.525,-0.563 0.943,-1.206 1.256,-1.931 C 5.843,-13.587 6,-14.375 6,-15.225 6,-16.65 5.706,-17.831 5.119,-18.769" /></g><g
           transform="translate(233.9491,85.7362)"
           id="g138"><path
             id="path140"
             style="fill:#2e55a2;fill-opacity:1;fill-rule:nonzero;stroke:none"
             d="m 0,0 -4.462,-10.35 h 8.774 z m 8.438,-20.625 c -0.576,1.5 -1.163,2.981 -1.763,4.444 -0.6,1.462 -1.213,2.944 -1.838,4.444 h -9.899 c -0.025,-0.051 -0.113,-0.238 -0.263,-0.563 -0.15,-0.325 -0.325,-0.712 -0.525,-1.162 -0.2,-0.45 -0.412,-0.944 -0.637,-1.481 -0.225,-0.538 -0.438,-1.057 -0.638,-1.557 -0.2,-0.5 -0.363,-0.95 -0.487,-1.35 -0.126,-0.4 -0.188,-0.688 -0.188,-0.862 0,-0.35 0.106,-0.625 0.319,-0.825 0.212,-0.201 0.469,-0.344 0.769,-0.431 0.299,-0.088 0.612,-0.132 0.937,-0.132 h 0.862 v -0.525 h -7.462 v 0.563 c 0.475,0 0.875,0.081 1.2,0.244 0.325,0.162 0.6,0.381 0.825,0.655 0.225,0.275 0.425,0.594 0.6,0.957 0.175,0.362 0.35,0.731 0.525,1.106 L 1.163,6.712 1.425,6.75 12.9,-20.625 Z" /></g><g
           transform="translate(271.1483,65.1117)"
           id="g142"><path
             id="path144"
             style="fill:#2e55a2;fill-opacity:1;fill-rule:nonzero;stroke:none"
             d="m 0,0 -11.663,12.675 -0.825,-0.6 V 0 h -7.687 v 0.562 c 0.5,0 0.968,0.025 1.406,0.075 0.437,0.05 0.825,0.162 1.163,0.338 0.337,0.174 0.6,0.443 0.787,0.806 0.188,0.362 0.281,0.856 0.281,1.481 v 23.812 l 4.05,-0.112 V 13.95 c 0.275,0.249 0.725,0.656 1.35,1.218 0.625,0.563 1.319,1.212 2.082,1.95 0.762,0.737 1.55,1.512 2.362,2.325 0.812,0.812 1.55,1.606 2.213,2.381 0.662,0.775 1.206,1.488 1.631,2.138 0.425,0.65 0.637,1.163 0.637,1.538 0,0.274 -0.081,0.48 -0.244,0.618 -0.162,0.137 -0.369,0.231 -0.618,0.281 -0.25,0.05 -0.507,0.069 -0.769,0.057 C -4.106,26.443 -4.326,26.437 -4.5,26.437 V 27 H 4.725 V 26.437 C 3.9,26.437 3.206,26.355 2.644,26.193 2.081,26.03 1.462,25.687 0.787,25.162 0.262,24.737 -0.25,24.268 -0.75,23.756 -1.25,23.243 -1.738,22.706 -2.213,22.143 -2.688,21.581 -3.15,21.018 -3.6,20.456 -4.05,19.893 -4.488,19.374 -4.913,18.899 -5.513,18.225 -6.131,17.549 -6.769,16.875 -7.406,16.199 -8.063,15.574 -8.738,15 L 2.175,3.525 C 2.55,3.125 2.943,2.737 3.356,2.362 3.769,1.987 4.206,1.662 4.668,1.387 5.131,1.112 5.618,0.894 6.131,0.731 6.643,0.568 7.187,0.5 7.762,0.525 V 0 Z" /></g><g
           transform="translate(301.1102,65.1117)"
           id="g146"><path
             id="path148"
             style="fill:#2e55a2;fill-opacity:1;fill-rule:nonzero;stroke:none"
             d="m 0,0 h -17.137 v 23.475 c 0,0.674 -0.075,1.205 -0.225,1.593 -0.15,0.388 -0.375,0.681 -0.675,0.881 -0.3,0.2 -0.675,0.332 -1.125,0.394 -0.45,0.062 -0.975,0.094 -1.575,0.094 V 27 h 20.4 v -5.851 h -0.375 c 0,0.826 -0.144,1.519 -0.432,2.081 -0.288,0.563 -0.675,1.013 -1.162,1.351 -0.487,0.337 -1.057,0.575 -1.706,0.712 C -4.663,25.43 -5.35,25.5 -6.075,25.5 h -7.05 V 15 h 5.738 c 0.724,0 1.362,0.056 1.912,0.168 0.55,0.113 1.013,0.319 1.388,0.619 0.375,0.3 0.656,0.706 0.843,1.219 0.188,0.512 0.282,1.168 0.282,1.969 h 0.487 V 9.637 H -3 c 0.1,1.55 -0.188,2.606 -0.862,3.169 -0.676,0.562 -1.738,0.843 -3.188,0.843 h -6.075 V 2.625 c 0,-0.275 0.094,-0.538 0.281,-0.788 0.188,-0.25 0.432,-0.375 0.732,-0.375 1.049,0 2.081,0.006 3.093,0.019 1.013,0.012 2.044,0.019 3.094,0.019 1.15,0 2.106,0.075 2.869,0.225 0.762,0.15 1.425,0.418 1.987,0.806 0.563,0.387 1.05,0.912 1.463,1.575 0.412,0.662 0.831,1.506 1.256,2.531 L 2.1,6.487 Z" /></g><g
           transform="translate(321.5663,87.3485)"
           id="g150"><path
             id="path152"
             style="fill:#2e55a2;fill-opacity:1;fill-rule:nonzero;stroke:none"
             d="M 0,0 C -0.262,0.725 -0.65,1.35 -1.162,1.875 -1.675,2.4 -2.287,2.813 -3,3.113 c -0.712,0.3 -1.519,0.45 -2.418,0.45 -0.476,0 -0.951,-0.057 -1.425,-0.169 -0.476,-0.113 -0.926,-0.269 -1.35,-0.469 v -11.1 c 0.125,-0.025 0.249,-0.037 0.375,-0.037 h 0.412 c 0.95,0 1.887,0.093 2.813,0.281 0.924,0.187 1.756,0.506 2.493,0.956 0.737,0.45 1.337,1.05 1.8,1.8 0.463,0.75 0.694,1.675 0.694,2.775 0,0.875 -0.131,1.675 -0.394,2.4 m 6.844,-22.762 c -0.6,0 -1.106,0.044 -1.519,0.131 -0.412,0.088 -0.787,0.232 -1.125,0.431 -0.337,0.2 -0.65,0.456 -0.937,0.769 -0.288,0.312 -0.595,0.694 -0.919,1.144 l -8.137,10.8 h -1.125 -1.275 v -12.75 h -7.538 v 0.525 c 0.425,-0.025 0.844,-0.013 1.256,0.037 0.413,0.05 0.788,0.156 1.125,0.319 0.338,0.163 0.606,0.406 0.807,0.731 0.199,0.325 0.299,0.75 0.299,1.275 V 1.875 c 0,0.525 -0.1,0.943 -0.299,1.256 -0.201,0.313 -0.469,0.557 -0.807,0.732 -0.337,0.174 -0.712,0.287 -1.125,0.337 -0.412,0.05 -0.819,0.062 -1.218,0.038 v 0.525 h 11.699 c 1.15,0 2.263,-0.107 3.338,-0.319 C 0.418,4.231 1.375,3.863 2.213,3.338 3.05,2.813 3.719,2.106 4.219,1.219 4.719,0.331 4.969,-0.775 4.969,-2.1 4.969,-3.125 4.793,-4.025 4.444,-4.8 4.093,-5.575 3.619,-6.244 3.019,-6.806 2.419,-7.369 1.712,-7.837 0.9,-8.212 0.087,-8.587 -0.769,-8.887 -1.668,-9.112 l 7.274,-9.638 c 0.65,-0.85 1.331,-1.556 2.044,-2.118 0.713,-0.563 1.631,-0.844 2.756,-0.844 v -0.525 c -1.175,-0.35 -2.362,-0.525 -3.562,-0.525" /></g><g
           transform="translate(353.0287,91.3798)"
           id="g154"><path
             id="path156"
             style="fill:#2e55a2;fill-opacity:1;fill-rule:nonzero;stroke:none"
             d="m 0,0 c -0.437,-0.112 -0.832,-0.294 -1.181,-0.544 -0.35,-0.25 -0.675,-0.557 -0.975,-0.918 -0.3,-0.363 -0.6,-0.807 -0.9,-1.331 l -7.275,-11.888 v -11.587 h -4.05 v 11.587 l -7.237,11.888 c -0.3,0.474 -0.588,0.899 -0.863,1.274 -0.275,0.375 -0.581,0.687 -0.918,0.938 -0.338,0.249 -0.713,0.437 -1.125,0.562 -0.413,0.125 -0.919,0.188 -1.519,0.188 v 0.562 l 7.5,0.038 c 0.725,-1.275 1.356,-2.394 1.893,-3.356 0.538,-0.963 1.119,-2.013 1.744,-3.15 0.625,-1.138 1.219,-2.2 1.781,-3.188 0.563,-0.988 1.038,-1.831 1.425,-2.531 0.387,-0.7 0.606,-1.087 0.657,-1.163 0.049,0.1 0.255,0.419 0.618,0.957 0.362,0.537 0.794,1.2 1.294,1.987 0.5,0.788 1.037,1.637 1.612,2.55 0.575,0.913 1.1,1.787 1.576,2.625 0.474,0.837 0.874,1.575 1.199,2.213 0.325,0.637 0.488,1.068 0.488,1.293 0,0.325 -0.1,0.575 -0.3,0.75 -0.2,0.175 -0.45,0.287 -0.75,0.338 -0.3,0.05 -0.613,0.075 -0.938,0.075 H -7.068 V 0.731 H 1.594 V 0.169 C 0.969,0.169 0.437,0.112 0,0" /></g><g
           transform="translate(164.4437,51.2186)"
           id="g158"><path
             id="path160"
             style="fill:#2e55a2;fill-opacity:1;fill-rule:nonzero;stroke:none"
             d="M 0,0 C 0.08,0 0.133,-0.053 0.133,-0.146 V -0.823 C 0.133,-0.916 0.08,-0.956 0,-0.956 H -1.872 V -7.09 c 0,-0.093 -0.027,-0.146 -0.133,-0.146 h -0.77 c -0.08,0 -0.133,0.053 -0.133,0.146 V 4.156 c 0,0.08 0.053,0.133 0.133,0.133 h 0.77 c 0.106,0 0.133,-0.053 0.133,-0.133 L -1.872,0 Z M -4.063,-3.837 C -4.05,-3.93 -4.09,-3.957 -4.169,-3.983 -5.444,-4.249 -6.812,-4.395 -8.365,-4.395 h -1.952 c -0.133,0 -0.172,0.067 -0.172,0.173 v 7.17 c 0,0.079 0.039,0.133 0.132,0.133 h 5.378 c 0.093,0 0.132,-0.054 0.132,-0.133 V 2.284 c 0,-0.08 -0.039,-0.133 -0.132,-0.133 h -4.475 v -5.616 h 1.275 c 1.155,0 2.629,0.132 3.837,0.385 0.093,0.013 0.159,-0.027 0.173,-0.107 z" /></g><g
           transform="translate(173.8305,52.6395)"
           id="g162"><path
             id="path164"
             style="fill:#2e55a2;fill-opacity:1;fill-rule:nonzero;stroke:none"
             d="m 0,0 v 2.735 c 0,0.08 0.053,0.133 0.146,0.133 h 0.757 c 0.106,0 0.146,-0.053 0.146,-0.133 v -6.36 c 0,-0.066 -0.04,-0.119 -0.146,-0.119 H 0.146 C 0.053,-3.744 0,-3.691 0,-3.625 v 2.709 h -2.377 c -0.08,0 -0.132,0.053 -0.132,0.146 v 0.637 c 0,0.08 0.052,0.133 0.132,0.133 z m 0.146,-6.453 c 0,0.93 -1.089,1.421 -2.828,1.421 -1.726,0 -2.815,-0.491 -2.815,-1.421 0,-0.929 1.089,-1.407 2.815,-1.407 1.739,0 2.828,0.478 2.828,1.407 m 1.022,0 c 0,-1.461 -1.46,-2.31 -3.85,-2.31 -2.39,0 -3.864,0.849 -3.864,2.31 0,1.474 1.474,2.324 3.864,2.324 2.39,0 3.85,-0.85 3.85,-2.324 m -9.108,2.842 c -0.093,-0.027 -0.186,-0.014 -0.212,0.052 l -0.346,0.572 c -0.053,0.092 -0.04,0.172 0.04,0.212 1.819,0.823 2.855,1.793 2.855,3.386 v 0.663 h -2.43 c -0.106,0 -0.133,0.054 -0.133,0.147 v 0.637 c 0,0.08 0.027,0.133 0.133,0.133 h 5.842 c 0.107,0 0.133,-0.053 0.133,-0.133 V 1.421 c 0,-0.093 -0.026,-0.147 -0.133,-0.147 H -4.567 V 0.611 c 0,-1.54 1.102,-2.337 2.775,-3.081 0.079,-0.039 0.092,-0.119 0.04,-0.199 l -0.306,-0.61 c -0.026,-0.067 -0.12,-0.067 -0.213,-0.027 -1.288,0.557 -2.296,1.314 -2.788,2.191 -0.478,-0.996 -1.367,-1.806 -2.881,-2.496" /></g><g
           transform="translate(192.8964,55.5072)"
           id="g166"><path
             id="path168"
             style="fill:#2e55a2;fill-opacity:1;fill-rule:nonzero;stroke:none"
             d="m 0,0 c 0.08,0 0.119,-0.053 0.119,-0.132 v -11.246 c 0,-0.094 -0.039,-0.147 -0.119,-0.147 h -0.77 c -0.093,0 -0.147,0.053 -0.147,0.147 V -0.132 C -0.917,-0.053 -0.863,0 -0.77,0 Z m -8.896,-7.78 h 2.589 v 2.801 h -2.589 z m 6.267,7.528 c 0.08,0 0.119,-0.053 0.119,-0.146 V -11.02 c 0,-0.093 -0.039,-0.146 -0.119,-0.146 h -0.757 c -0.093,0 -0.133,0.053 -0.133,0.146 v 5.802 h -1.766 v -3.386 c 0,-0.079 -0.04,-0.119 -0.132,-0.119 h -4.369 c -0.093,0 -0.132,0.04 -0.132,0.119 v 7.356 c 0,0.093 0.039,0.146 0.132,0.146 h 0.757 c 0.093,0 0.133,-0.053 0.133,-0.146 v -2.775 h 2.589 v 2.775 c 0,0.093 0.053,0.146 0.146,0.146 h 0.744 c 0.092,0 0.132,-0.053 0.132,-0.146 v -3.014 h 1.766 v 3.864 c 0,0.093 0.04,0.146 0.133,0.146 z" /></g><g
           transform="translate(203.3451,43.9823)"
           id="g170"><path
             id="path172"
             style="fill:#2e55a2;fill-opacity:1;fill-rule:nonzero;stroke:none"
             d="m 0,0 c -0.093,0 -0.133,0.053 -0.133,0.146 v 11.247 c 0,0.079 0.04,0.132 0.133,0.132 h 0.771 c 0.092,0 0.146,-0.053 0.146,-0.132 V 0.146 C 0.917,0.053 0.863,0 0.771,0 Z m -3.08,6.586 c 0,1.952 -0.89,2.974 -2.231,2.974 -1.354,0 -2.244,-1.022 -2.244,-2.974 0,-1.965 0.89,-2.974 2.244,-2.974 1.341,0 2.231,1.009 2.231,2.974 m -5.51,0 c 0,2.562 1.34,3.917 3.279,3.917 1.925,0 3.28,-1.355 3.28,-3.917 0,-2.563 -1.355,-3.93 -3.28,-3.93 -1.939,0 -3.279,1.367 -3.279,3.93" /></g><g
           transform="translate(215.8392,55.5072)"
           id="g174"><path
             id="path176"
             style="fill:#2e55a2;fill-opacity:1;fill-rule:nonzero;stroke:none"
             d="m 0,0 c 0.093,0 0.146,-0.053 0.146,-0.132 v -11.246 c 0,-0.094 -0.053,-0.147 -0.146,-0.147 h -0.771 c -0.092,0 -0.132,0.053 -0.132,0.147 v 5.815 H -3.16 c -0.093,0 -0.146,0.04 -0.146,0.133 v 0.677 c 0,0.093 0.053,0.146 0.146,0.146 h 2.257 v 4.475 c 0,0.079 0.04,0.132 0.132,0.132 z m -3.625,-1.142 c 0.106,0 0.146,-0.052 0.146,-0.132 v -1.341 c 0,-2.855 -2.005,-5.139 -5.364,-6.812 -0.08,-0.04 -0.159,-0.04 -0.199,0.04 l -0.345,0.664 c -0.053,0.079 -0.027,0.146 0.039,0.186 1.952,0.942 3.36,2.098 4.13,3.439 -0.757,-0.093 -1.607,-0.173 -2.364,-0.173 h -1.606 c -0.106,0 -0.146,0.053 -0.146,0.133 v 0.677 c 0,0.08 0.04,0.133 0.146,0.133 h 1.447 c 0.969,0 2.058,0.053 2.961,0.185 0.159,0.492 0.239,0.997 0.239,1.528 v 0.531 h -4.382 c -0.093,0 -0.133,0.053 -0.133,0.119 v 0.691 c 0,0.08 0.04,0.132 0.133,0.132 z" /></g><g
           transform="translate(226.7929,43.9823)"
           id="g178"><path
             id="path180"
             style="fill:#2e55a2;fill-opacity:1;fill-rule:nonzero;stroke:none"
             d="m 0,0 c -0.093,0 -0.133,0.053 -0.133,0.146 v 11.247 c 0,0.079 0.04,0.132 0.133,0.132 h 0.77 c 0.093,0 0.146,-0.053 0.146,-0.132 V 0.146 C 0.916,0.053 0.863,0 0.77,0 Z m -8.033,2.722 c -0.093,0 -0.146,0.053 -0.146,0.133 v 4.049 c 0,0.067 0.053,0.134 0.146,0.134 h 4.474 V 9.547 H -8.06 c -0.093,0 -0.146,0.053 -0.146,0.146 v 0.624 c 0,0.079 0.053,0.133 0.146,0.133 h 5.404 c 0.093,0 0.12,-0.054 0.12,-0.133 v -4.01 c 0,-0.079 -0.04,-0.133 -0.133,-0.133 H -7.13 V 3.625 h 1.5 c 1.155,0 2.616,0.12 3.838,0.372 0.092,0.026 0.146,-0.014 0.172,-0.12 l 0.093,-0.61 C -1.514,3.187 -1.541,3.147 -1.633,3.121 -2.895,2.868 -4.262,2.722 -5.816,2.722 Z" /></g><g
           transform="translate(142.7787,326.267)"
           id="g182"><path
             id="path184"
             style="fill:#2e55a2;fill-opacity:1;fill-rule:nonzero;stroke:none"
             d="M 0,0 C 0,0.776 0.629,1.405 1.405,1.405 2.181,1.405 2.811,0.776 2.811,0 2.811,-0.776 2.181,-1.405 1.405,-1.405 0.629,-1.405 0,-0.776 0,0" /></g><g
           transform="translate(236.5121,326.267)"
           id="g186"><path
             id="path188"
             style="fill:#2e55a2;fill-opacity:1;fill-rule:nonzero;stroke:none"
             d="M 0,0 C 0,0.776 0.629,1.405 1.405,1.405 2.181,1.405 2.811,0.776 2.811,0 2.811,-0.776 2.181,-1.405 1.405,-1.405 0.629,-1.405 0,-0.776 0,0" /></g><g
           id="g190"><g
             id="g192" /><g
             id="g204"><g
               style="opacity:0.130005"
               id="g202"
               clip-path="url(#clipPath196)"><g
                 id="g200"
                 transform="translate(184.143,143.3773)"><path
                   id="path198"
                   style="fill:#e88819;fill-opacity:1;fill-rule:nonzero;stroke:none"
                   d="M 0,0 C -0.214,0.071 -0.466,0.104 -0.711,0.138 -0.68,0.182 -0.434,0.182 0.016,-0.001 0.01,0 0.005,0 0,0 m 80.838,2.003 c -0.772,1.974 0.184,4.322 -1.415,5.765 -0.755,0.681 -0.979,1.547 -1.443,2.404 -0.5,0.924 -1.337,1.237 -2.312,1.504 -2.299,0.631 -4.732,0.426 -7.076,0.22 C 59.989,11.144 51.408,10.441 42.765,10.383 42.287,10.38 41.81,10.379 41.332,10.379 36.14,10.143 30.958,9.751 25.771,9.443 7.159,8.337 -11.454,7.231 -30.066,6.125 -40.562,5.501 -53.856,4.513 -64.352,3.89 c -2.966,-0.177 -3.036,-2.128 -2.893,-5.327 0.121,-2.702 2.149,-5.416 4.957,-5.678 0.981,-1.669 2.73,-2.813 4.844,-2.813 1.285,0 2.544,0.49 3.551,1.292 0.184,-0.018 0.37,-0.028 0.559,-0.028 1.758,0 3.472,0.914 4.553,2.294 1.046,0.062 2.093,0.124 3.139,0.186 1.023,0.521 2.061,1.012 3.113,1.468 0.324,0.155 0.654,0.299 0.99,0.43 0.03,0.012 0.059,0.019 0.086,0.025 0.987,0.404 1.984,0.779 2.993,1.125 0.011,0.244 0.127,0.49 0.388,0.701 1.426,1.149 3.281,1.593 5.093,1.529 0.535,-0.018 0.874,-0.333 1.02,-0.723 1.202,-0.019 2.418,-0.222 3.59,-0.411 3.232,-0.523 6.4,-1.166 9.68,-0.697 1.577,0.225 3.649,0.484 4.341,-1.325 0.032,-0.084 0.028,-0.175 0,-0.262 0.486,0.029 0.973,0.058 1.459,0.087 0.113,-0.718 0.343,-1.399 0.697,-1.875 2.081,-2.801 4.498,-4.702 7.725,-6.025 2.404,-0.986 5.086,-1.381 7.677,-1.384 5.946,-0.005 11.284,2.33 16.594,4.746 0.282,0.129 0.565,0.256 0.847,0.384 0.012,0.231 0.092,0.468 0.265,0.686 0.716,0.908 1.63,1.597 2.607,2.203 0.452,0.28 0.913,0.543 1.367,0.818 0.002,0.059 0.006,0.118 0.012,0.177 0.126,1.189 1.071,2.045 2.266,2.02 0.39,-0.008 0.866,-0.255 1.039,-0.636 0.206,0.07 0.428,0.119 0.668,0.144 1.626,0.172 3.376,-0.199 5.013,-0.258 1.791,-0.065 3.584,-0.061 5.376,10e-4 1.626,0.056 3.349,0.042 4.902,0.59 1.332,0.47 2.188,1.798 3.541,2.129 1.354,0.332 2.862,-0.709 3.97,-1.351 1.546,-0.896 3.097,-1.731 4.688,-2.545 0.799,-0.409 1.549,-0.901 2.341,-1.319 0.67,-0.354 1.404,-0.506 2.142,-0.66 0.475,-0.1 0.729,-0.463 0.793,-0.87 0.297,-0.096 0.594,-0.191 0.889,-0.29 1.898,-0.639 3.757,-1.452 5.805,-1.436 1.29,0.01 2.475,0.31 3.52,0.828 0.758,-0.08 1.517,-0.158 2.275,-0.238 1.36,-0.145 3.097,0.739 4.024,1.667 0.935,0.934 1.65,2.435 1.67,3.795 1.064,1.382 1.65,3.314 1.014,4.939" /></g></g></g></g></g></g></g></svg>