<svg width="73" height="20" viewBox="0 0 73 20" fill="none" xmlns="http://www.w3.org/2000/svg">
<path d="M6.72 14.72C6.72 13.44 7.48 12.02 8.04 10.92C8.32 10.36 8.5 10.26 8.92 10.26C9.22 10.26 9.46 10.42 9.4 10.7C9.32 11.06 9.06 11.52 8.96 11.82C9.16 12 9.46 12.16 9.54 12.82C9.68 13.92 8.6 15.62 7.7 15.62C7.16 15.62 6.72 15.12 6.72 14.72ZM7.88 14.02C7.86 14.08 7.82 14.48 7.94 14.44C8.3 14.32 8.76 13.58 8.76 12.98C8.76 12.9 8.74 12.56 8.6 12.48C8.32 12.8 8.08 13.32 7.88 14.02ZM10.2 9.6C10.04 9.16 10.16 8.3 10.16 7.7C10.16 7.46 10.26 6.54 10.28 6.36C10.3 6.18 10.34 5.96 10.34 5.82C10.14 5.94 9.66 6.28 9.34 6.5C8.46 7.1 7.3 7.76 6.16 7.76C5.84 7.76 5.66 7.46 5.66 7.26C5.66 7.04 5.72 6.74 5.98 6.7C6.3 6.64 6.78 6.6 7.08 6.5C8.34 6.04 9.36 5.28 10.46 4.38C10.96 3.98 10.78 3.3 11.46 3.3C11.8 3.3 11.96 3.5 11.96 3.82C11.96 4.22 11.82 4.4 11.68 4.74C11.36 5.46 11.22 6.4 11.16 7.16C11.12 7.72 11.08 8.22 11.08 8.8C11.08 9.26 10.98 9.7 10.58 9.76C10.44 9.78 10.24 9.72 10.2 9.6ZM0.88 10.92C0.78 10.66 0.94 10.34 1 10.18C1.2 9.72 1.68 9.14 1.86 8.8C2.3 8 2.9 7.2 3.18 6.58C3.5 5.88 4.1 4.96 4.1 4.22C3.64 4.22 3.44 4.36 2.92 4.7C2.74 4.82 2.52 5.04 2.04 5.2C1.58 5.36 1.3 4.82 1.46 4.46C1.58 4.18 1.94 3.9 2.18 3.76C2.8 3.4 3.34 3.14 4.04 3.14C4.52 3.14 5.32 3.22 5.32 3.88C5.32 5.14 4.7 6.18 4.14 7.26C4.02 7.5 3.72 7.98 3.5 8.48C3.82 8.64 4.52 8.86 4.7 8.9C5.08 9 5.86 9.14 6.06 9.16C6.34 9.2 6.5 9.28 6.5 9.6C6.5 10.08 5.98 10.1 5.6 10.06C4.64 9.96 3.96 9.82 2.84 9.5C2.84 9.5 2.44 10.16 2.34 10.3C2.14 10.62 1.86 11.16 1.46 11.2C1.2 11.22 0.96 11.14 0.88 10.92ZM15.1544 17.56C15.2344 17 16.2144 16.12 16.9544 15.48C17.7944 14.72 19.1144 13.78 19.4744 13.34C18.4544 13.38 17.6344 13.36 16.6544 13.36C15.4544 13.36 15.5344 12.3 16.1944 11.74C16.4544 11.52 17.6344 10.38 17.9544 10.08C18.1544 9.88 18.4944 9.68 18.5144 9.52C17.4944 9.58 16.7344 9.7 16.1744 9.8C15.7344 9.88 15.0544 10.06 14.4544 10.1C14.0944 10.14 13.9344 9.82 13.9344 9.54C13.9344 9.34 14.1744 9.1 14.5744 9C15.7544 8.6 17.9344 8.48 18.4944 8.48C19.1544 8.48 19.6944 8.8 19.6944 9.38C19.6944 10.18 18.2944 11.1 17.4944 11.88C17.4144 11.98 17.2344 12.14 17.0144 12.34C17.4344 12.36 17.8144 12.36 18.2344 12.36C18.3944 12.36 19.6344 12.38 19.6944 12.38C21.2144 12.38 20.8744 13.34 20.2144 13.9C20.1344 14 18.6744 15.28 18.4144 15.48C18.0544 15.76 16.9544 16.82 16.4144 17.32C16.8544 17.32 17.6344 17.22 18.2544 17.14C19.0144 17.04 20.3544 16.74 20.5944 16.72C20.7344 16.68 21.0544 16.62 21.2944 16.62C21.5544 16.62 21.6744 17.26 20.7744 17.54C19.6944 17.88 17.2144 18.34 16.1944 18.38C15.5144 18.4 15.0744 18.1 15.1544 17.56ZM12.7944 7.24C12.8144 7.02 13.0544 6.88 13.1544 6.84C15.0344 6.16 16.2944 6.1 17.4144 6.08C18.2944 6.06 18.9744 6.12 19.4744 6.22C19.9344 6.32 20.4344 6.54 20.2544 6.98C20.2144 7.08 20.0544 7.08 19.9344 7.08C19.6144 7.08 18.8944 7 18.3544 7C17.1744 6.98 16.0944 7.06 14.8544 7.4C14.4344 7.52 13.7144 7.86 13.3544 7.88C12.9344 7.9 12.7944 7.56 12.7944 7.24ZM14.9944 4.1C14.9944 2.9 15.9344 1.74 16.4944 1.24C16.6544 1.1 16.7944 1.16 16.9944 1.08C17.0944 1.04 17.1544 0.94 17.3944 0.94C17.9544 0.94 18.3544 1.62 18.3544 2.22C18.3544 3.46 17.4544 4.86 15.9544 4.92C15.4344 4.94 14.9944 4.64 14.9944 4.1ZM17.3744 1.84C16.9144 2.12 16.1744 3.2 16.1744 3.96C16.7744 3.96 17.5144 2.98 17.5144 2.22C17.5144 2.06 17.4544 1.94 17.3744 1.84ZM26.0825 10.62C25.9625 9.86 26.1425 7.24 26.4825 5.76C26.5425 5.5 26.5825 5.02 27.1425 5.02C27.3825 5.02 27.6825 5.28 27.6225 5.6C27.5225 6.12 27.4225 7.18 27.3025 7.68C27.2025 8.14 27.1225 9.12 27.1025 9.76C27.0825 10.14 27.3025 10.26 27.5225 10.18C28.6625 9.82 30.4225 8.92 31.1625 8.74C31.3425 8.7 31.4425 8.8 31.5025 8.92C31.5625 9.08 31.5225 9.34 31.3025 9.52C31.0825 9.72 30.8225 9.88 30.5625 10.04C30.1225 10.32 28.1825 11.28 27.2825 11.46C26.7825 11.56 26.1825 11.24 26.0825 10.62ZM33.0025 13.26C32.9425 13.04 32.9425 11.06 32.9225 10.9C32.9025 10.74 32.8225 10.62 32.8425 10.44C33.0825 8.34 33.4025 5.52 33.8625 3.4C33.9225 3.16 33.9825 2.86 34.3225 2.86C34.7025 2.86 34.9425 3.1 34.9425 3.48C34.9425 3.94 34.7225 4.34 34.6425 4.72C34.3625 5.96 34.1425 8.1 34.0625 9.42C34.7025 9.12 36.2825 8.82 37.0625 8.8C37.0625 8.8 37.4625 8.78 37.5425 8.82C37.6625 8.88 37.7425 8.92 37.6825 9.18C37.5825 9.6 35.4825 9.86 34.6425 10.34C34.2225 10.58 34.0025 10.92 34.0025 11.44C34.0025 12 34.1825 13.74 34.1825 14.28C34.1825 14.5 33.9225 14.6 33.7825 14.6C33.1625 14.6 33.1025 13.66 33.0025 13.26ZM42.5606 17.42C42.5606 16.08 42.9606 11.88 43.1406 10.54C43.2006 10.08 43.2406 9.58 43.3206 9.12C43.3606 8.88 43.5206 8.64 43.7806 8.64C44.1006 8.64 44.4806 8.74 44.4206 9.18C44.3006 9.92 43.9806 11.8 43.9006 12.78C43.7806 14.1 43.5806 16.48 43.4806 17.42C43.4606 17.54 43.3206 18.04 43.0006 18.04C42.6206 18.04 42.5606 17.48 42.5606 17.42ZM37.6206 8.92C37.6006 8.42 38.9206 7.92 39.4206 7.7C40.9206 7.1 42.0806 6.88 43.6606 6.78C44.3806 6.74 45.6206 6.74 46.3606 6.88C46.6806 6.94 46.9406 7.1 47.1206 7.3C47.1806 7.38 47.1806 7.7 47.0806 7.72L46.9606 7.74C46.6606 7.72 46.4006 7.68 46.1006 7.66C45.8206 7.62 44.9806 7.58 44.0406 7.64C42.5006 7.74 41.1206 8.14 39.7006 8.7C39.3806 8.84 39.0206 9.02 38.8006 9.18C38.5006 9.42 38.3806 9.6 38.0206 9.62C37.7206 9.64 37.6406 9.18 37.6206 8.92ZM44.5406 4.1C44.5206 4.38 44.0806 4.52 43.3806 4.68C42.8806 4.8 42.5006 4.88 41.9206 5C41.4206 5.1 40.9406 5.2 40.4406 5.2C40.3206 5.2 39.9406 5.18 39.7806 5.12C39.2606 4.92 39.1406 4.64 39.1406 4.06C39.1406 3.44 39.4606 2.8 39.8806 2.12C39.9606 2 40.4606 1.26 40.5606 1.12C40.7206 0.919999 40.9206 0.799999 41.2006 0.799999C41.4406 0.799999 41.6006 0.94 41.5806 1.2C41.5606 1.44 41.1606 2.06 40.9606 2.36C40.6806 2.76 40.3806 3.24 40.3406 3.6C40.3006 3.98 40.4806 4.14 40.8006 4.12C41.9606 4.06 42.6206 3.86 43.8206 3.62C44.1806 3.54 44.5606 3.64 44.5406 4.1ZM51.4205 13.64C51.4205 12.42 52.0205 11.54 52.5805 10.5C52.6205 10.42 52.7805 10.28 52.9205 10.26C53.1405 10.2 53.6405 10.2 53.7205 10.44C53.8205 10.7 53.5205 11.06 53.4005 11.26C53.3205 11.38 53.2005 11.5 53.1005 11.74C53.0005 11.98 52.8205 12.28 52.6805 12.64C52.6005 12.86 52.5205 13.06 52.5205 13.3C52.5205 13.62 52.7605 13.66 53.1005 13.6C54.4205 13.34 55.4805 12.78 56.7805 12.62C57.2205 12.56 57.2405 13.36 56.7405 13.46C56.2405 13.56 53.5405 14.6 53.0405 14.7C52.9405 14.72 52.6405 14.78 52.4805 14.78H52.3805C51.7405 14.78 51.4205 14.22 51.4205 13.64ZM49.0205 5.9C49.0205 5.38 49.2005 4.72 49.3205 4.3C49.4205 3.96 49.9805 2.64 50.1605 2.34C50.2805 2.12 50.5805 2.12 50.7605 2.12C51.1005 2.12 51.2405 2.32 51.2405 2.52C51.2405 2.62 51.1605 2.84 51.1605 2.84C50.6805 3.78 50.1805 4.9 50.1005 5.68C50.4405 5.64 50.8605 5.54 51.2205 5.46C51.9205 5.3 52.4405 5.14 53.0005 5.02C53.4005 4.94 53.6205 5.16 53.6605 5.36C53.7205 5.64 53.5605 5.74 53.4205 5.82C53.2205 5.92 52.5405 6.18 52.2205 6.28C51.4205 6.52 50.4805 6.84 49.8605 6.84C49.1205 6.84 49.0205 6.44 49.0205 5.9ZM47.7205 9.54C47.7205 9.32 47.9405 9.16 48.0405 9.12C49.8805 8.34 52.0405 8.16 54.1205 8.16H55.1805C56.0605 8.16 56.7405 8.26 57.2405 8.38C57.7005 8.48 58.2005 8.7 58.0205 9.14C57.9805 9.24 57.8205 9.24 57.7005 9.24C57.3805 9.24 56.6605 9.16 56.1205 9.1C55.7405 9.06 55.3605 9.04 54.9805 9.04C53.4405 9.04 51.2205 9.18 49.7805 9.62C49.3605 9.74 48.6605 10.14 48.3005 10.18C47.8805 10.22 47.7205 9.86 47.7205 9.54ZM62.8695 9.82C62.8695 9.62 63.1895 9.38 63.3895 9.28C64.3095 8.88 64.7895 7.64 65.2095 6.82C65.5695 6.12 65.8095 5.52 65.9695 4.72C65.9895 4.6 66.1095 4.48 66.3295 4.48C66.8095 4.48 66.9295 4.7 66.9095 5.18C66.8895 5.62 66.7095 6.14 66.4895 6.64C66.4895 6.64 65.6495 8.42 65.4895 8.7C66.5095 8.54 67.5895 8.38 68.5095 8.24C69.1695 8.14 69.9695 8.1 70.7295 8.1C71.5095 8.1 71.9295 8.28 71.9295 8.62C71.9295 8.9 71.7895 9 71.6095 9C69.9695 9.04 69.2495 9.1 67.6895 9.46C66.9295 9.66 65.8095 9.88 65.3695 9.98C64.8495 10.1 64.3295 10.46 63.7295 10.46C63.1895 10.46 62.8695 10.4 62.8695 9.82ZM67.0295 13.1C66.8895 13.18 66.5695 13.4 66.3895 13.52C65.9895 13.82 65.7095 14.08 65.4095 14.38C65.1495 14.62 65.0495 14.82 64.7895 14.84C64.5895 14.84 64.2495 14.66 64.2495 14.38C64.2095 14.18 64.2895 13.98 64.5095 13.8C65.0095 13.38 67.3295 11.58 67.8095 11.2C68.1895 10.92 68.3695 10.7 68.8495 10.54C69.1095 10.46 69.5095 10.6 69.5295 10.94C69.5495 11.3 69.3295 11.38 69.0895 11.52C68.7895 11.7 68.2295 12.1 68.0295 12.36C68.2095 13.08 68.9295 14.4 69.3495 15.06C70.0695 16.18 71.5295 17.82 72.5495 18.66C72.7695 18.8 72.8695 18.9 72.8695 19.06C72.8495 19.2 72.6895 19.34 72.5295 19.32C72.1095 19.24 71.8695 19.06 71.5895 18.86C70.6295 18.26 69.3495 16.74 68.6895 15.8C68.4295 15.44 68.1695 15.06 67.9095 14.62C67.6295 14.12 67.2695 13.52 67.0295 13.1ZM67.9695 5.9C67.9895 5.66 68.0695 5.4 68.1695 5.12C68.3895 4.54 68.7495 3.76 68.7695 3.2C68.7695 2.82 68.5895 2.52 68.0295 2.52C67.7895 2.52 67.3295 2.46 66.4095 2.68C66.0695 2.76 65.4295 2.96 65.0695 2.96C64.8295 2.96 64.5495 2.84 64.5095 2.48C64.4895 2.26 64.5295 2.04 64.7495 1.96C65.2495 1.78 65.7695 1.64 66.2895 1.54C67.1495 1.38 67.9295 1.36 68.6295 1.48C69.7895 1.68 70.2295 2.2 69.9495 3.56C69.8895 3.84 69.6895 4.46 69.5495 4.74C69.4495 4.96 69.2095 5.54 69.0895 5.8C68.8695 6.26 68.7495 6.4 68.3295 6.36C68.1295 6.34 67.9495 6.1 67.9695 5.9Z" fill="#FEF9EC"/>
</svg>
