<svg width="24" height="24" viewBox="0 0 24 24" fill="none" xmlns="http://www.w3.org/2000/svg">
<g id="evant-menu">
<rect id="Rectangle 56" x="1" y="6" width="22" height="16" rx="2" fill="#FFD500"/>
<path id="Star 2" d="M11.6222 8.08696C11.7467 7.72873 12.2533 7.72873 12.3778 8.08696L13.5544 11.4718C13.6093 11.6299 13.7568 11.737 13.9241 11.7404L17.5069 11.8134C17.8861 11.8212 18.0426 12.303 17.7404 12.5321L14.8848 14.6971C14.7514 14.7982 14.6951 14.9715 14.7436 15.1317L15.7813 18.5617C15.8911 18.9247 15.4812 19.2225 15.1699 19.0058L12.2285 16.959C12.0911 16.8634 11.9089 16.8634 11.7715 16.959L8.83007 19.0058C8.51877 19.2225 8.10891 18.9247 8.21873 18.5617L9.25644 15.1317C9.30489 14.9715 9.24856 14.7982 9.11524 14.6971L6.25961 12.5321C5.95739 12.303 6.11394 11.8212 6.49311 11.8134L10.0759 11.7404C10.2432 11.737 10.3907 11.6299 10.4456 11.4718L11.6222 8.08696Z" fill="#FFF5C2"/>
<rect id="Rectangle 83" x="4" y="2" width="5" height="3" rx="1" fill="#FFD500"/>
<rect id="Rectangle 84" x="15" y="2" width="5" height="3" rx="1" fill="#FFD500"/>
</g>
</svg>
