<svg width="24" height="24" viewBox="0 0 24 24" fill="none" xmlns="http://www.w3.org/2000/svg">
<g id="setting-menu">
<path id="Subtract" fill-rule="evenodd" clip-rule="evenodd" d="M10.8346 1C10.3513 1 9.93716 1.34563 9.85071 1.82112L9.57635 3.3301C8.8738 3.52609 8.20591 3.80517 7.58393 4.15609L6.32238 3.2827C5.92502 3.00761 5.3878 3.05605 5.04606 3.39779L3.3979 5.04594C3.05617 5.38768 3.00773 5.92491 3.28282 6.32226L4.15617 7.58378C3.80521 8.2058 3.5261 8.87374 3.3301 9.57634L1.82111 9.85071C1.34562 9.93716 1 10.3513 1 10.8346V13.1654C1 13.6487 1.34562 14.0628 1.82112 14.1493L3.3301 14.4237C3.52612 15.1263 3.80528 15.7944 4.15629 16.4164L3.28311 17.6777C3.00802 18.075 3.05646 18.6123 3.39819 18.954L5.04635 20.6022C5.38809 20.9439 5.92532 20.9923 6.32267 20.7173L7.58406 19.844C8.206 20.1949 8.87385 20.4739 9.57635 20.6699L9.85071 22.1789C9.93716 22.6544 10.3513 23 10.8346 23H13.1654C13.6487 23 14.0628 22.6544 14.1493 22.1789L14.4237 20.6699C15.1262 20.4739 15.7942 20.1948 16.4162 19.8439L17.6779 20.7174C18.0753 20.9925 18.6125 20.944 18.9543 20.6023L20.6024 18.9541C20.9441 18.6124 20.9926 18.0752 20.7175 17.6778L19.8439 16.416C20.1948 15.7941 20.4739 15.1262 20.6699 14.4237L22.1789 14.1493C22.6544 14.0628 23 13.6487 23 13.1654V10.8346C23 10.3513 22.6544 9.93716 22.1789 9.85071L20.6699 9.57634C20.4739 8.87389 20.1949 8.20609 19.8441 7.58419L20.7178 6.32213C20.9929 5.92478 20.9444 5.38755 20.6027 5.04582L18.9545 3.39766C18.6128 3.05592 18.0756 3.00748 17.6782 3.28257L16.4163 4.15622C15.7943 3.80524 15.1263 3.52611 14.4237 3.3301L14.1493 1.82111C14.0628 1.34562 13.6487 1 13.1654 1H10.8346ZM12 16C14.2091 16 16 14.2091 16 12C16 9.79086 14.2091 8 12 8C9.79086 8 8 9.79086 8 12C8 14.2091 9.79086 16 12 16Z" fill="#595E66"/>
<circle id="Ellipse 65" cx="12" cy="12" r="5" stroke="#8C9095" stroke-width="2"/>
</g>
</svg>
